<svg xmlns="http://www.w3.org/2000/svg" xmlns:xlink="http://www.w3.org/1999/xlink" version="1.1" x="0px" y="0px" viewBox="0 0 100 125" enable-background="new 0 0 100 100" xml:space="preserve"><g><path fill="none" d="M60.126,28.288c-0.035-0.016-0.07-0.029-0.109-0.035c-0.149-0.026-0.305,0.029-0.458,0.148l-0.007,0.011   c0-0.002-0.002-0.002-0.002-0.003c-0.002,0.001-0.003,0.003-0.005,0.003c0-0.01,0-0.019-0.002-0.028   c-0.579-2.203-1.312-3.551-2.064-4.354c-0.146-0.079-0.299-0.15-0.466-0.198c-0.019,0.324,0.352,0.817,0.39,1.299   c-1.047-0.488-2.046-1.245-3.508-1.299c-0.341-0.012-0.71-0.01-1.088-0.001c-0.513,0.183-1.031,0.304-1.546,0.386   c-1.025,0.382-1.435,0.417-2.326,0.115c-2.007-0.107-3.531-0.667-3.531-0.667c-4.42-0.409-5.121,4.183-5.175,4.709   c0,0.013-0.001,0.025-0.001,0.038c-0.001,0-0.001,0-0.002,0c-0.156-0.125-0.317-0.186-0.471-0.158   c-0.066,0.01-0.13,0.04-0.188,0.081c-0.138,0.099-0.246,0.284-0.326,0.522c-0.043,0.617-0.072,1.243-0.08,1.889   c0.008,0.06,0.014,0.117,0.026,0.178c0.164,0.922,0.511,1.69,0.89,2.07c0.188,0.188,0.383,0.28,0.569,0.248   c0.091-0.015,0.17-0.06,0.245-0.128c0.907,2.817,2.642,5.624,4.832,7.3c1.262,0.966,2.674,1.556,4.165,1.556   c1.523,0,2.964-0.617,4.247-1.621c2.149-1.682,3.854-4.454,4.748-7.236c0.074,0.068,0.154,0.113,0.244,0.128   c0.161,0.028,0.328-0.036,0.491-0.174c0.41-0.348,0.795-1.158,0.971-2.144C60.816,29.639,60.61,28.514,60.126,28.288z"/><path fill="none" d="M27.663,89.923h44.675c1.666,0,3.017-1.335,3.017-2.98l6.09-27.804c0-1.646-1.351-2.98-3.016-2.98h-3.612   h-1.662h-8.076H54.339h-2.966h-3.199h-2.86H25.172h-3.601c-1.666,0-3.017,1.334-3.016,2.98l6.091,27.804   C24.647,88.588,25.998,89.923,27.663,89.923z M50,71.689c0.895,0,1.619,0.725,1.619,1.618c0,0.895-0.725,1.619-1.619,1.619   c-0.894,0-1.619-0.725-1.619-1.619C48.381,72.414,49.106,71.689,50,71.689z"/><path d="M48.208,55.664h3.13h3.357h10.617h7.604h1.829c-0.032-0.16-0.069-0.322-0.115-0.481c-2.818-9.695-8.024-10.028-9.146-10.29   c-2.206-0.518-4.878-0.297-6.304-0.742c-0.249,2.087-4.266,3.746-9.187,3.746c-4.919,0-8.937-1.659-9.188-3.746   c-1.425,0.445-4.097,0.224-6.304,0.742c-1.121,0.261-6.327,0.595-9.146,10.29c-0.046,0.159-0.084,0.321-0.115,0.481h19.743H48.208z   "/><circle cx="50" cy="73.308" r="1.619"/><path d="M75.377,91.186H24.625c-0.715,0-1.293,0.584-1.293,1.304c0,0.718,0.578,1.303,1.293,1.303h50.752   c0.714,0,1.292-0.583,1.292-1.303S76.089,91.186,75.377,91.186z"/><path d="M27.388,90.416h45.226c1.681,0,3.045-1.362,3.045-3.045l6.09-28.66c0-1.682-1.363-3.045-3.045-3.045h-3.957h-1.828h-7.604   H54.695h-3.357h-3.129h-0.001h-3.222H25.243h-3.945c-1.682,0-3.045,1.362-3.045,3.045l6.09,28.66   C24.341,89.054,25.705,90.416,27.388,90.416z M21.572,56.158h3.601h20.142h2.86h3.199h2.966h10.739h8.076h1.662h3.612   c1.665,0,3.016,1.335,3.016,2.98l-6.09,27.804c0,1.646-1.351,2.98-3.017,2.98H27.663c-1.666,0-3.016-1.335-3.016-2.98   l-6.091-27.804C18.555,57.492,19.906,56.158,21.572,56.158z"/><path d="M36.146,14.667l-0.069,0.958c-0.373,0.063-0.657,0.387-0.657,0.778c0,0.352,0.23,0.649,0.547,0.75l-0.636,8.896   l0.877,2.631l0.877-2.631l-0.635-8.896c0.317-0.103,0.547-0.399,0.547-0.75c0-0.391-0.284-0.714-0.656-0.778l-0.063-0.882   l1.519,0.881l0.063,0.035l1.205,0.699l-0.329,4.201l0.233,0.086c-0.339,0.995-0.559,2.108-0.658,3.295   c-0.217,0.887-0.344,1.808-0.344,2.759h0.021c0,0.009-0.002,0.016-0.002,0.023c-0.014,0.002-0.027,0.002-0.041,0.005   c-0.825,0.144-1.202,1.903-0.837,3.93c0.331,1.863,1.171,3.302,1.945,3.411c0.986,2.652,2.547,5.228,4.477,7.113   c1.092,1.065,2.301,1.91,3.593,2.423c0.887,0.351,1.812,0.546,2.764,0.546c0.951,0,1.877-0.195,2.764-0.546   c1.336-0.53,2.584-1.417,3.707-2.536c1.883-1.878,3.404-4.415,4.369-7.022c0.744-0.218,1.523-1.61,1.84-3.388   c0.347-1.931,0.019-3.614-0.725-3.895c0.025-0.471,0.044-0.947,0.044-1.434c-0.007-2.53-0.555-4.67-1.548-6.401l-0.216-2.178   l1.29-0.747l0.655-0.378l2.737-1.585c0.171-0.171,0.171-0.448,0-0.62L50.242,7.36c-0.17-0.17-0.449-0.17-0.617,0l-14.564,6.06   c-0.171,0.171-0.171,0.448,0,0.62L36.146,14.667z M60.588,30.923c-0.176,0.986-0.561,1.796-0.971,2.144   c-0.163,0.138-0.33,0.203-0.491,0.174c-0.09-0.015-0.17-0.06-0.244-0.128c-0.895,2.782-2.599,5.554-4.748,7.236   c-1.283,1.004-2.724,1.621-4.247,1.621c-1.491,0-2.903-0.59-4.165-1.556c-2.189-1.676-3.925-4.482-4.832-7.3   c-0.074,0.069-0.154,0.113-0.245,0.128c-0.187,0.032-0.382-0.061-0.569-0.248c-0.379-0.38-0.726-1.148-0.89-2.07   c-0.012-0.061-0.018-0.118-0.026-0.178c0.007-0.646,0.037-1.272,0.08-1.889c0.081-0.238,0.188-0.424,0.326-0.522   c0.058-0.042,0.121-0.071,0.188-0.081c0.154-0.027,0.314,0.033,0.471,0.158c0.001,0,0.001,0,0.002,0   c0-0.013,0.001-0.025,0.001-0.038c0.054-0.526,0.755-5.118,5.175-4.709c0,0,1.524,0.56,3.531,0.667   c0.892,0.302,1.301,0.267,2.326-0.115c0.515-0.082,1.033-0.203,1.546-0.386c0.378-0.008,0.747-0.011,1.088,0.001   c1.462,0.055,2.461,0.811,3.508,1.299c-0.038-0.482-0.408-0.976-0.39-1.299c0.167,0.048,0.319,0.119,0.466,0.198   c0.753,0.803,1.485,2.151,2.064,4.354c0.002,0.009,0.002,0.018,0.002,0.028c0.002,0,0.003-0.002,0.005-0.003   c0,0.001,0.002,0.001,0.002,0.003l0.007-0.011c0.153-0.12,0.309-0.175,0.458-0.148c0.039,0.006,0.074,0.019,0.109,0.035   C60.61,28.514,60.816,29.639,60.588,30.923z"/></g><text x="0" y="115" fill="#000000" font-size="5px" font-weight="bold" font-family="'Helvetica Neue', Helvetica, Arial-Unicode, Arial, Sans-serif">Created by Wilson Joseph</text><text x="0" y="120" fill="#000000" font-size="5px" font-weight="bold" font-family="'Helvetica Neue', Helvetica, Arial-Unicode, Arial, Sans-serif">from the Noun Project</text></svg>