<svg xmlns="http://www.w3.org/2000/svg" xmlns:xlink="http://www.w3.org/1999/xlink" version="1.1" x="0px" y="0px" viewBox="0 0 213.361 306.465" style="enable-background:new 0 0 213.361 245.172;" xml:space="preserve"><g><path d="M91.361,76.065c9.78-0.052,19.737-3.553,30.43-10.702c1.651-1.109,3.577-1.697,5.564-1.697   c2.914,0,5.649,1.261,7.535,3.422l58.357-35.7l1.913,3.128l-58.413,35.733c1.535,4.22,0.078,9.107-3.814,11.72   C119.23,91.193,104.858,96.07,91.373,96.07h-0.012V133h122V0h-122V76.065z"/><path d="M91.258,94.068c0.035,0,0.069,0,0.104,0c0.003,0,0.007,0,0.011,0c11.295,0,25.228-3.516,40.446-13.76   c3.003-2.015,4.201-5.708,3.189-8.994c-0.225-0.729-0.556-1.44-1.003-2.106c-0.258-0.384-0.548-0.73-0.856-1.055   c-2.637-2.774-6.96-3.335-10.246-1.128c-12.967,8.671-23.465,10.998-31.541,11.041c-0.034,0-0.07,0.002-0.104,0.002   c-6.396,0-11.36-1.506-14.702-2.961c-1.666-0.729-2.914-1.442-3.694-1.934c-0.391-0.246-0.662-0.434-0.809-0.541   c-0.053-0.039-0.09-0.066-0.11-0.082c-0.013-0.01-0.017-0.013-0.017-0.013l-0.001,0.001c-0.881-0.699-1.865-1.179-2.888-1.454   c-0.767-0.254-1.583-0.397-2.436-0.397h-5.463H27.965c-0.555,0-1.095,0.062-1.617,0.173c-3.473,0.238-6.693,1.319-9.551,2.851   c-4.868,2.636-8.855,6.558-11.835,11.172C2.015,89.504,0.025,94.903,0,100.774c-0.004,3.309,0.687,6.773,2.292,10.004   c2.389,4.883,6.821,8.919,12.517,11.408c1.09,0.481,2.242,0.9,3.427,1.288c0.653,0.214,1.319,0.415,2.002,0.601   c0.182,0.049,0.365,0.097,0.549,0.145c2.883,0.744,6.022,1.254,9.466,1.516c1.87,0.143,3.821,0.219,5.871,0.222   c2.062-0.002,4.218-0.072,6.479-0.22c0.732-0.048,1.431-0.201,2.093-0.43c3.322-1.147,5.609-4.397,5.371-8.073   c-0.289-4.409-4.095-7.75-8.504-7.462c-1.938,0.124-3.751,0.184-5.439,0.184c-1.182,0.003-2.3-0.026-3.356-0.081   c-6.078-0.319-10.11-1.532-12.529-2.828c-0.514-0.275-0.963-0.554-1.334-0.829c-0.249-0.181-0.466-0.357-0.667-0.532   c-0.807-0.698-1.273-1.354-1.61-2.012c-0.405-0.829-0.621-1.742-0.625-2.899c-0.068-2.686,1.554-6.693,4.21-9.601   c0.009-0.01,0.019-0.019,0.028-0.028v13.673l0.943,0.506c1.639,0.88,5.243,2.282,11.894,2.605l2.792-17.614l26.996,4.279   l-3.354,21.155l-3.849,24.277l-6.061-0.961l-4.637-0.734l-16.299-2.584l1.267-7.99c-3.449-0.274-6.617-0.787-9.57-1.546   c-0.041-0.011-0.083-0.021-0.124-0.031v1.688v18.939v86c0,6.829,5.535,12.363,12.363,12.363c6.828,0,12.363-5.534,12.363-12.363   v-78.273h4.637v78.273c0,6.829,5.535,12.363,12.363,12.363c6.828,0,12.363-5.534,12.363-12.363v-86v-18.939V93.481v-2.11   C78.854,92.876,84.538,94.056,91.258,94.068z"/><ellipse transform="matrix(0.2268 -0.9739 0.9739 0.2268 -5.0304 76.6406)" cx="45.753" cy="41.488" rx="22.495" ry="22.495"/></g><text x="0" y="260.172" fill="#000000" font-size="5px" font-weight="bold" font-family="'Helvetica Neue', Helvetica, Arial-Unicode, Arial, Sans-serif">Created by Gan Khoon Lay</text><text x="0" y="265.172" fill="#000000" font-size="5px" font-weight="bold" font-family="'Helvetica Neue', Helvetica, Arial-Unicode, Arial, Sans-serif">from the Noun Project</text></svg>